<?xml version="1.0" encoding="utf-8"?>
<!-- Generator: Adobe Illustrator 17.0.0, SVG Export Plug-In . SVG Version: 6.00 Build 0)  -->
<!DOCTYPE svg PUBLIC "-//W3C//DTD SVG 1.1//EN" "http://www.w3.org/Graphics/SVG/1.1/DTD/svg11.dtd">
<svg xmlns="http://www.w3.org/2000/svg" xmlns:xlink="http://www.w3.org/1999/xlink" version="1.1" id="Layer_1" x="0px" y="0px" width="2000px" height="1400px" viewBox="-600 0 2000 1400" enable-background="new 0 0 1400 1400" xml:space="preserve">
<polygon fill-rule="evenodd" clip-rule="evenodd" fill="#c0fe71" points="-2100,1400 -2100,0 1400,0 14000,1400 "/>
<g>
	
	<polygon fill-rule="evenodd" clip-rule="evenodd" fill="#00964E" points="613.9,615.7 1400,1012.1 1400,890.5 736.1,575.7 "/>
	<polygon fill-rule="evenodd" clip-rule="evenodd" fill="#00964E" points="792.7,1266.2 558.1,1358.4 -200.2,882.5 22,807.1    22,831.1  "/>
	<!-- <path fill-rule="evenodd" clip-rule="evenodd" fill="#ffffff" d="M0,1008.4l159.5,100L0,1164.9V1008.4z M0,1192l186.8-66.5   l224.3,140.6l-219.3,82.1L0,1241.8V1192z"/> -->
</g>
<g>
	<polygon fill-rule="evenodd" clip-rule="evenodd" fill="#c0fe71" points="0,814.6 736,575.7 736,0 0,0  "/>
	<path fill-rule="evenodd" clip-rule="evenodd" fill="#00964E" d="M614,0v279.7c-5-2.7-11.9-4.8-19.5-6.5   c19.3,34.5,4.4,69.6,11.5,106.5c-16-12-37.6-19.1-48.2-36.1c-9.8-15.6,0.8-38.6-8.4-54.6c-6.8-11.9-23.5-14.2-35.2-21.3   c19.1,22.2-6.5,43.7,5.6,69.9c4.4,9.6-24.7,53.7,4.1,93.8c54.7,76.2-4.9,118-1.4,192l91.5-29.3v21.6l122-40V0H614z"/>
</g>
<g>
	<polygon fill-rule="evenodd" clip-rule="evenodd" fill="#01713b" points="736,575.7 1400,890.5 1400,0 736,0  "/>
	<polygon fill-rule="evenodd" clip-rule="evenodd" fill="#c0fe71" points="964,531.3 1001,517.4 1001,0 964,0  "/>
	<polygon fill-rule="evenodd" clip-rule="evenodd" fill="#FFFFFF" points="1001.8,517.4 1400,691.4 1400,725.7 963.9,531.3  "/>
	<polygon fill-rule="evenodd" clip-rule="evenodd" fill="#FCFFBA" points="1025,0 1025,503.5 1239.7,599.4 1239.5,0  "/>
	<polygon fill-rule="evenodd" clip-rule="evenodd" fill="#FFFFFF" points="1043,496.5 1043,0 1025,0 1025,503.5 1240,599.3    1240,580.8  "/>
	<polygon fill-rule="evenodd" clip-rule="evenodd" fill="#FCFFBA" points="1267,0 1267,611.5 1400,670.6 1400,0  "/>
	<polygon fill-rule="evenodd" clip-rule="evenodd" fill="#FFFFFF" points="1286,604.6 1286,0 1267,0 1267,611.5 1400,670.6    1400,653.5  "/>
	<polygon fill-rule="evenodd" clip-rule="evenodd" fill="#00964E" points="988,522.3 1217.3,626.1 1193.9,634 1215,643.3    1237.9,635.3 1400,708.5 1400,691.4 1001.8,517.4  "/>
	<polygon fill-rule="evenodd" clip-rule="evenodd" fill="#00964E" points="988,522.3 988,0 1001,0 1001,517.4  "/>
</g>
<g>
	<polygon fill-rule="evenodd" clip-rule="evenodd" fill="#FFFFFF" points="650.6,502.4 720.5,531.1 809.9,508 740,480.8  "/>
	<polygon fill-rule="evenodd" clip-rule="evenodd" fill="#01713b" points="663.4,503 722.1,527.1 797.1,507.6 738.4,484.8  "/>
	<polygon fill-rule="evenodd" clip-rule="evenodd" fill="#00964E" points="674,507.4 722.1,527.1 786.4,510.4 738.4,491.7  "/>
	<polygon fill-rule="evenodd" clip-rule="evenodd" fill="#3cb268" points="721,646.4 721,531.1 810,508 810,616.9  "/>
	<polygon fill-rule="evenodd" clip-rule="evenodd" fill="#01713b" points="721,646.4 721,531.1 651,502.4 651,611.3  "/>
	<path fill-rule="evenodd" clip-rule="evenodd" fill="#FFFFFF" d="M730.5,511.9c-13.6-26-6.8-36-13.2-67.1   c-5.6-26.9,12.5-53.5,9.5-96.8c-2.9-42.4,37.4-56.5,46.3-73.1c0.5,29.9-9.8,40.8-4.6,63.4c11.2,49.3-24,66.6-15.3,98.6   c7.4,27.3-15.7,45.6-10.2,76.2C738,516.5,732.3,514.8,730.5,511.9L730.5,511.9z"/>
	<path fill-rule="evenodd" clip-rule="evenodd" fill="#3cb268" d="M719.8,513.3c-13.6-26,1.7-56.6-16.2-82.9   c-13-19-6-41.2-24.5-65.8c-17.6-23.3,17.5-50.5,0-82.4c30.1,26.7,21.7,45.2,41.7,72.7c11.4,15.7,6.4,47.5,20.8,72.2   c14.3,24.4-14.7,56.8-9.3,87.3C727.4,517.8,721.6,516.2,719.8,513.3L719.8,513.3z"/>
	<path fill-rule="evenodd" clip-rule="evenodd" fill="#3cb268" d="M715.7,511.4c13.7-26-9-24.6-17.9-55.1   c-10.9-37.4-43.8-28.1-73.9-54.6c2.7,30.3,28.2,45.1,37.6,68c10.7,26.1,47.1,12.3,41.7,42.8C708.1,516,713.9,514.3,715.7,511.4   L715.7,511.4z"/>
	<path fill-rule="evenodd" clip-rule="evenodd" fill="#3cb268" d="M710.6,510.5c-17.4-21.6-3-46-20.9-72.2   c-13-19-42.1-25.5-50.9-46.8c-11.2-27.1,10.5-61.6-6.9-93.5c30.1,26.7,28.7,58.3,48.6,85.7c11.4,15.7,30,20.7,37.5,44.9   c8.4,27-4.3,55.1,1.9,84.7C715.6,514.1,712.4,513.4,710.6,510.5L710.6,510.5z"/>
	<path fill-rule="evenodd" clip-rule="evenodd" fill="#FFFFFF" d="M710.6,510.5c-13.7-26.1,5.8-46-12-72.2c-13-19-44-29.2-52.8-50.5   c-11.1-27.1,3.6-57.9-13.9-89.8c30.1,26.7,28.7,58.3,48.6,85.7c11.4,15.7,30,20.7,37.5,44.9c8.4,27-4.3,55.1,1.9,84.7   C715.6,514.1,712.4,513.4,710.6,510.5L710.6,510.5z"/>
	<path fill-rule="evenodd" clip-rule="evenodd" fill="#3cb268" d="M730.5,511.9c-13.6-26,11.8-30.5,5.4-61.6   c-5.6-26.9,17.6-30.9,14.6-74.1c-2.9-42.4,56.8-42.6,65.8-59.2c0.5,29.9-29.3,26.9-24.1,49.5c11.2,49.3-20.8,49.4-12,81.5   c7.5,27.2-42.5,34.5-37,65C738,516.5,732.3,514.8,730.5,511.9L730.5,511.9z"/>
	<path fill-rule="evenodd" clip-rule="evenodd" fill="#FFFFFF" d="M751.5,453.6c-5.6-26.9,18.1-28.7,15-71.9   c-2.9-42.4,40.6-48,49.6-64.6c0.5,29.9-29.3,26.9-24.1,49.5c8.4,36.7-7.3,46.2-12.2,61.9C765.3,436.2,761.5,450.3,751.5,453.6   L751.5,453.6z"/>
	<path fill-rule="evenodd" clip-rule="evenodd" fill="#FFFFFF" d="M739.7,511.4c-13.6-26,16.8-23.2,25.7-53.7   c10.9-37.4,45.6-52.5,97.9-36.3c-44,3.9-60.1,25.5-69.4,48.4c-10.7,26.1-47.1,12.3-41.7,42.8C747.3,516,741.5,514.3,739.7,511.4   L739.7,511.4z"/>
</g>
<g>
	<polygon fill-rule="evenodd" clip-rule="evenodd" fill="#3cb268" points="1321,1053.4 793,1266.2 793,1099.6 1321,899.6  "/>
	<polygon fill-rule="evenodd" clip-rule="evenodd" fill="#75dc8f" points="546.1,516.6 1320.8,899.6 793,1099.6 22.7,671.8  "/>
	<polygon fill-rule="evenodd" clip-rule="evenodd" fill="#01713b" points="22,831.1 793,1266.2 793,1099.6 73.7,700.1 73.3,501.9    22,473.6  "/>
	<polygon fill-rule="evenodd" clip-rule="evenodd" fill="#3cb268" points="22,786.2 793,1221.3 793,1207.4 22,777.3  "/>
	<path fill-rule="evenodd" clip-rule="evenodd" fill="#8ec61d" d="M546.1,318.5l43.8,18.3C451.1,299.6,181,316.5,74.3,501.3   l-51.7-27.6C137.4,289.3,435,273.9,546.1,318.5L546.1,318.5z"/>
	<path fill-rule="evenodd" clip-rule="evenodd" fill="#3cb268" d="M590,538.3V336.8c-139-37.2-408.9-20.3-515.6,164.5l-0.6,198.8   L590,538.3z"/>
	<path fill-rule="evenodd" clip-rule="evenodd" fill="#FFFFFF" d="M230.7,787.3l486.7-157.1l231.5,109.3l-491.1,174L230.7,787.3z    M487.7,930l489-173.9l261.1,122.2l-503.5,188.6L487.7,930z"/>
</g>
<g>
	<path fill-rule="evenodd" clip-rule="evenodd" fill="#00964E" d="M370.1,588.8c-10.5,4.2-9.3,7.7-0.8,10.7   c41.6,28.9,84.4,47.2,127.8,60.7c58,1.4,149.5-42.3,162.3-60.3c8.6-3.7,11.8-10.1,5.2-11.2l-105.9-49.9L370.1,588.8z"/>
	<path fill-rule="evenodd" clip-rule="evenodd" fill="#FFFFFF" d="M370.1,588.8l123.1,58.5c48.4-48.1,107.9-59.8,171.3-58.5   l-105.9-49.9C488.4,530.6,426.3,549.6,370.1,588.8L370.1,588.8z"/>
</g>
<g>
	<path fill-rule="evenodd" clip-rule="evenodd" fill="#00964E" d="M132.5,655.5c-11.7,4.7-10.4,8.6-1,12   c46.5,32.3,94.4,52.8,142.9,67.8c64.7,1.6,167-47.3,181.3-67.3c9.6-4.2,13.2-11.3,5.8-12.5l-118.3-55.8L132.5,655.5z"/>
	<path fill-rule="evenodd" clip-rule="evenodd" fill="#FFFFFF" d="M132.5,655.5l137.5,65.4c54.1-53.8,120.6-66.8,191.4-65.4   l-118.3-55.8C264.8,590.5,195.4,611.7,132.5,655.5L132.5,655.5z"/>
</g>
<g>
	<polygon fill-rule="evenodd" clip-rule="evenodd" fill="#3cb268" points="78,0 78,194.6 100,203.8 100,0  "/>
	<polygon fill-rule="evenodd" clip-rule="evenodd" fill="#FFFFFF" points="100,0 100,203.8 415,146.9 415,0  "/>
	<polygon fill-rule="evenodd" clip-rule="evenodd" fill="#FCFFBA" points="115,0 115,185.3 401,134.6 401,0  "/>
	<polygon fill-rule="evenodd" clip-rule="evenodd" fill="#3cb268" points="389,0 389,132.1 401,134.6 401,0  "/>
	<polygon fill-rule="evenodd" clip-rule="evenodd" fill="#c0fe71" points="115,181.1 389.1,132.1 401.3,134.6 115,185.3  "/>
	<path fill-rule="evenodd" clip-rule="evenodd" fill="#8ec61d" d="M115,124.4C167,82,213.3,77,258.2,92.6   c-21.7,14.8-35.2,40.2-44.6,71L115,181.1V124.4z"/>
	<path fill-rule="evenodd" clip-rule="evenodd" fill="#8ec61d" d="M389,49.5v82.6l-165.4,29.6C233.8,95.9,323,26.5,389,49.5   L389,49.5z"/>
	<polygon fill-rule="evenodd" clip-rule="evenodd" fill="#00964E" points="78,194.6 44,203.8 44,0 78,0  "/>
</g>
<g>
	<polygon fill-rule="evenodd" clip-rule="evenodd" fill="#00964E" points="888.8,1351 772.2,1400 1212.9,1400 1377.1,1328.5    1357.8,1316.7 1250,1363.2 1097.3,1265.6  "/>
	<polygon fill-rule="evenodd" clip-rule="evenodd" fill="#FFFFFF" points="888.8,1265.5 1075.1,1377.8 1399.6,1230.7 1230.1,1128.5     "/>
	<path fill-rule="evenodd" clip-rule="evenodd" fill="#01713b" d="M889,1265.5v85.3l22,14.6v-54.2l138,81.4v7.4h26v-22.2L889,1265.5   z M1377,1328.4l-19-11.8v-37l19-8.5V1328.4z"/>
	<path fill-rule="evenodd" clip-rule="evenodd" fill="#3cb268" d="M1400,1230.7v85.9l-23,11.8v-57.3l-276,121.5v7.4h-26v-22.2   L1400,1230.7z M911,1365.4l20-9.8v-32.9l-20-11.5V1365.4z"/>
</g>
<g>
	<polygon fill-rule="evenodd" clip-rule="evenodd" fill="#00964E" points="1077.8,1220.3 1058.2,1228.4 1137.9,1276 1041.5,1357.5    1054.4,1365.3 1193.4,1296.1 1312.5,1204.3 1163.6,1271.2  "/>
	<g>
		<polygon fill-rule="evenodd" clip-rule="evenodd" fill="#c0fe71" points="1077.9,1213.9 1163.5,1265.5 1312.6,1197.9 1234.7,1151       "/>
		<path fill-rule="evenodd" clip-rule="evenodd" fill="#FFFFFF" d="M1124,1232.1l7.1,4.3l12.5-5.6l-6.5-3.9L1124,1232.1z     M1154.3,1251.4l7.1,4.3l12.4-5.6l-6.5-3.9L1154.3,1251.4z M1282.3,1198.4l7.1,4.3l12.5-5.6l-6.5-3.9L1282.3,1198.4z M1266.3,1205    l7.1,4.3l12.5-5.6l-6.5-3.9L1266.3,1205z M1250.3,1211.7l7.1,4.3l12.5-5.6l-6.5-3.9L1250.3,1211.7z M1234.3,1218.3l7.1,4.3    l12.5-5.6l-6.5-3.9L1234.3,1218.3z M1218.3,1224.9l7.2,4.3l12.4-5.7l-6.5-3.9L1218.3,1224.9z M1202.3,1231.6l7.2,4.3l12.4-5.6    l-6.5-3.9L1202.3,1231.6z M1186.3,1238.2l7.2,4.3l12.4-5.7l-6.5-3.9L1186.3,1238.2z M1170.3,1244.8l7.1,4.3l12.4-5.6l-6.5-3.9    L1170.3,1244.8z M1144.2,1245l7.1,4.3l12.4-5.6l-6.5-3.9L1144.2,1245z M1272.1,1191.9l7.2,4.3l12.4-5.6l-6.5-3.9L1272.1,1191.9z     M1256.1,1198.6l7.2,4.3l12.4-5.6l-6.5-3.9L1256.1,1198.6z M1240.2,1205.2l7.1,4.3l12.4-5.6l-6.5-3.9L1240.2,1205.2z     M1224.2,1211.9l7.1,4.3l12.4-5.6l-6.5-3.9L1224.2,1211.9z M1208.2,1218.5l7.1,4.3l12.4-5.6l-6.5-3.9L1208.2,1218.5z     M1192.2,1225.1l7.1,4.3l12.4-5.7l-6.5-3.9L1192.2,1225.1z M1176.2,1231.7l7.1,4.3l12.4-5.6l-6.5-3.9L1176.2,1231.7z     M1160.2,1238.4l7.1,4.3l12.4-5.7l-6.5-3.9L1160.2,1238.4z M1134.1,1238.6l7.1,4.3l12.5-5.6l-6.5-3.9L1134.1,1238.6z     M1262.1,1185.5l7.1,4.3l12.4-5.6l-6.5-3.9L1262.1,1185.5z M1246.1,1192.1l7.1,4.3l12.4-5.6l-6.5-3.9L1246.1,1192.1z     M1230.1,1198.8l7.1,4.3l12.4-5.6l-6.5-3.9L1230.1,1198.8z M1214.1,1205.4l7.1,4.3l12.4-5.6l-6.5-3.9L1214.1,1205.4z M1198.1,1212    l7.1,4.3l12.4-5.6l-6.5-3.9L1198.1,1212z M1182.1,1218.6l7.1,4.3l12.5-5.6l-6.5-3.9L1182.1,1218.6z M1166.1,1225.3l7.1,4.3    l12.5-5.7l-6.5-3.9L1166.1,1225.3z M1150.1,1231.9l7.1,4.3l12.5-5.6l-6.5-3.9L1150.1,1231.9z M1251.9,1179l7.1,4.3l12.5-5.6    l-6.5-3.9L1251.9,1179z M1236,1185.7l7.1,4.3l12.5-5.6l-6.5-3.9L1236,1185.7z M1220,1192.3l7.1,4.3l12.5-5.6l-6.5-3.9L1220,1192.3    z M1204,1198.9l7.1,4.3l12.5-5.6l-6.5-3.9L1204,1198.9z M1188,1205.6l7.1,4.3l12.5-5.6l-6.5-3.9L1188,1205.6z M1172,1212.2    l7.1,4.3l12.5-5.6l-6.5-3.9L1172,1212.2z M1156,1218.8l7.1,4.3l12.5-5.6l-6.5-3.9L1156,1218.8z M1140,1225.5l7.1,4.3l12.5-5.7    l-6.5-3.9L1140,1225.5z"/>
		<polygon fill-rule="evenodd" clip-rule="evenodd" fill="#3cb268" points="1077.9,1213.9 1158.1,1262.2 1218.2,1205.6     1221.1,1210.2 1163.5,1265.5 1163.6,1271.2 1077.8,1220.3   "/>
		<polygon fill-rule="evenodd" clip-rule="evenodd" fill="#00964E" points="1163.5,1265.5 1163.6,1271.2 1312.5,1204.3     1312.6,1197.9 1370.1,1143.4 1221.1,1210.2   "/>
		<polygon fill-rule="evenodd" clip-rule="evenodd" fill="#FFFFFF" points="1145.5,1192.8 1171.4,1208.4 1216.4,1188 1192.9,1173.8       "/>
		<polygon fill-rule="evenodd" clip-rule="evenodd" fill="#c0fe71" points="1218.2,1205.6 1366.9,1140.5 1370.1,1143.4     1221.1,1210.2   "/>
	</g>
</g>
<g>
	<path fill-rule="evenodd" clip-rule="evenodd" fill="#00964E" d="M966.3,1269.7l50.4,29.6c3.9,2.3,9.1,2.3,13.3,0.4l51.7-24.2   c1.7-0.8,2.6-5.1,0.9-6.1l-49.3-29c-2.9-1.7-6.8-2.5-9.9-1.2l-51,21.6C965.8,1263.7,963.2,1267.9,966.3,1269.7L966.3,1269.7z"/>
	<path fill-rule="evenodd" clip-rule="evenodd" fill="#3cb268" d="M972.2,1265.9l50.4,29.6c3.9,2.2,9.1,2.3,13.3,0.3l51.7-24.2   c1.7-0.8,2.6-5.1,1-6.1l-49.3-29c-2.9-1.7-6.8-2.5-10-1.1l-51,21.6C971.6,1259.9,969,1264.1,972.2,1265.9L972.2,1265.9z"/>
	<path fill-rule="evenodd" clip-rule="evenodd" fill="#8ec61d" d="M972.3,1263.1l50.4,29.6c3.8,2.3,9.1,2.3,13.3,0.4l51.7-24.2   c1.7-0.8,2.5-5.1,0.9-6.1l-49.3-29c-2.9-1.7-6.8-2.5-10-1.1l-51,21.6C971.7,1257.1,969.1,1261.3,972.3,1263.1L972.3,1263.1z"/>
</g>
<g>
	<path fill-rule="evenodd" clip-rule="evenodd" fill="#3cb268" d="M1001.6,1254.4c-13.5,2.8-24.2,11.7-16.9,15.9   c19.5,11.4,43.4-0.3,53-5.1L1001.6,1254.4z"/>
	<path fill-rule="evenodd" clip-rule="evenodd" fill="#FFFFFF" d="M1001.6,1254.4l22.2,10.6c9.9,4.3,20.8-1.7,19.9-6.6   C1027.7,1231.9,1003.5,1239.2,1001.6,1254.4L1001.6,1254.4z"/>
	<path fill-rule="evenodd" clip-rule="evenodd" fill="#00964E" d="M1024.5,1248.6l5.8,4.5l2-0.9   C1032.5,1246.3,1026.8,1243.6,1024.5,1248.6L1024.5,1248.6z"/>
</g>
</svg>
